<?xml version="1.0" encoding="UTF-8"?>
<svg version="1.1" xmlns="http://www.w3.org/2000/svg" width="96" height="96">
<path d="M0 0 C1.32 0 2.64 0 4 0 C4 23.76 4 47.52 4 72 C2.68 72 1.36 72 0 72 C0 48.24 0 24.48 0 0 Z " fill="#2196F3" transform="translate(62,12)"/>
<path d="M0 0 C1.32 0 2.64 0 4 0 C4 23.76 4 47.52 4 72 C2.68 72 1.36 72 0 72 C0 48.24 0 24.48 0 0 Z " fill="#2196F3" transform="translate(30,12)"/>
<path d="M0 0 C1.32 0 2.64 0 4 0 C4 15.84 4 31.68 4 48 C2.68 48 1.36 48 0 48 C0 32.16 0 16.32 0 0 Z " fill="#2196F3" transform="translate(54,24)"/>
<path d="M0 0 C1.32 0 2.64 0 4 0 C4 15.84 4 31.68 4 48 C2.68 48 1.36 48 0 48 C0 32.16 0 16.32 0 0 Z " fill="#2196F3" transform="translate(22,24)"/>
<path d="M0 0 C1.32 0 2.64 0 4 0 C4 11.88 4 23.76 4 36 C2.68 36 1.36 36 0 36 C0 24.12 0 12.24 0 0 Z " fill="#2196F3" transform="translate(70,30)"/>
<path d="M0 0 C1.32 0 2.64 0 4 0 C4 11.88 4 23.76 4 36 C2.68 36 1.36 36 0 36 C0 24.12 0 12.24 0 0 Z " fill="#2196F3" transform="translate(38,30)"/>
<path d="M0 0 C1.32 0 2.64 0 4 0 C4 7.92 4 15.84 4 24 C2.68 24 1.36 24 0 24 C0 16.08 0 8.16 0 0 Z " fill="#2196F3" transform="translate(14,36)"/>
<path d="M0 0 C1.32 0 2.64 0 4 0 C4 4.62 4 9.24 4 14 C2.68 14 1.36 14 0 14 C0 9.38 0 4.76 0 0 Z " fill="#2196F3" transform="translate(78,42)"/>
<path d="M0 0 C1.32 0 2.64 0 4 0 C4 4.62 4 9.24 4 14 C2.68 14 1.36 14 0 14 C0 9.38 0 4.76 0 0 Z " fill="#2196F3" transform="translate(46,42)"/>
</svg>
